<mxGraphModel><root><mxCell id="0"/><mxCell id="1" parent="0"/><mxCell id="2" value="데이터 결합과 분석을 위한 순서도" style="whiteSpace=wrap;strokeWidth=2;" vertex="1" parent="1"><mxGeometry width="258" height="34" as="geometry"/></mxCell><mxCell id="3" value="데이터 수집" style="whiteSpace=wrap;strokeWidth=2;" vertex="1" parent="1"><mxGeometry x="79" y="84" width="100" height="34" as="geometry"/></mxCell><mxCell id="4" value="전처리" style="whiteSpace=wrap;strokeWidth=2;" vertex="1" parent="1"><mxGeometry x="98" y="167" width="63" height="34" as="geometry"/></mxCell><mxCell id="5" value="데이터 결합" style="whiteSpace=wrap;strokeWidth=2;" vertex="1" parent="1"><mxGeometry x="79" y="251" width="100" height="34" as="geometry"/></mxCell><mxCell id="6" value="데이터 분석" style="whiteSpace=wrap;strokeWidth=2;" vertex="1" parent="1"><mxGeometry x="79" y="334" width="100" height="34" as="geometry"/></mxCell><mxCell id="7" value="결과 도출" style="whiteSpace=wrap;strokeWidth=2;" vertex="1" parent="1"><mxGeometry x="87" y="418" width="84" height="34" as="geometry"/></mxCell><mxCell id="8" value="평가 및 해석" style="whiteSpace=wrap;strokeWidth=2;" vertex="1" parent="1"><mxGeometry x="77" y="501" width="105" height="34" as="geometry"/></mxCell><mxCell id="9" value="" style="curved=1;startArrow=none;endArrow=block;exitX=0.5005450581395349;exitY=0.9852941176470589;entryX=0.50140625;entryY=-0.014705882352941176;" edge="1" parent="1" source="2" target="3"><mxGeometry relative="1" as="geometry"><Array as="points"/></mxGeometry></mxCell><mxCell id="10" value="" style="curved=1;startArrow=none;endArrow=block;exitX=0.50140625;exitY=0.9705882352941176;entryX=0.49429563492063494;entryY=0;" edge="1" parent="1" source="3" target="4"><mxGeometry relative="1" as="geometry"><Array as="points"/></mxGeometry></mxCell><mxCell id="11" value="" style="curved=1;startArrow=none;endArrow=block;exitX=0.49429563492063494;exitY=0.9852941176470589;entryX=0.50140625;entryY=-0.014705882352941176;" edge="1" parent="1" source="4" target="5"><mxGeometry relative="1" as="geometry"><Array as="points"/></mxGeometry></mxCell><mxCell id="12" value="" style="curved=1;startArrow=none;endArrow=block;exitX=0.50140625;exitY=0.9705882352941176;entryX=0.50140625;entryY=0;" edge="1" parent="1" source="5" target="6"><mxGeometry relative="1" as="geometry"><Array as="points"/></mxGeometry></mxCell><mxCell id="13" value="" style="curved=1;startArrow=none;endArrow=block;exitX=0.50140625;exitY=0.9852941176470589;entryX=0.5016741071428571;entryY=-0.014705882352941176;" edge="1" parent="1" source="6" target="7"><mxGeometry relative="1" as="geometry"><Array as="points"/></mxGeometry></mxCell><mxCell id="14" value="" style="curved=1;startArrow=none;endArrow=block;exitX=0.5016741071428571;exitY=0.9705882352941176;entryX=0.49657738095238096;entryY=0;" edge="1" parent="1" source="7" target="8"><mxGeometry relative="1" as="geometry"><Array as="points"/></mxGeometry></mxCell></root></mxGraphModel>